<svg width="22" height="22" viewBox="0 0 22 22" fill="none" xmlns="http://www.w3.org/2000/svg">
<path d="M11 7.33337V11L12.8333 12.8334" stroke="#2F2B3D" stroke-opacity="0.9" stroke-width="1.5" stroke-linecap="round" stroke-linejoin="round"/>
<path d="M2.04974 10.0073C2.00776 10.4194 2.30779 10.7874 2.71987 10.8294C3.13196 10.8714 3.50004 10.5714 3.54202 10.1593L2.04974 10.0073ZM3.95868 13.4926C3.81656 13.1036 3.38595 12.9034 2.99688 13.0455C2.60781 13.1876 2.40762 13.6182 2.54974 14.0073L3.95868 13.4926ZM2.04588 18.3333C2.04588 18.7475 2.38166 19.0833 2.79588 19.0833C3.21009 19.0833 3.54588 18.7475 3.54588 18.3333H2.04588ZM2.79588 13.75V13C2.38166 13 2.04588 13.3358 2.04588 13.75H2.79588ZM7.37921 14.5C7.79342 14.5 8.12921 14.1642 8.12921 13.75C8.12921 13.3358 7.79342 13 7.37921 13V14.5ZM2.79588 10.0833L3.54202 10.1593C3.92863 6.36383 7.1029 3.46338 10.9177 3.41981L10.9092 2.66986L10.9006 1.91991C6.3228 1.97219 2.51368 5.45273 2.04974 10.0073L2.79588 10.0833ZM10.9092 2.66986L10.9177 3.41981C14.7326 3.37624 17.9723 6.20342 18.4455 9.98906L19.1897 9.89603L19.9339 9.80301C19.3661 5.26024 15.4784 1.86762 10.9006 1.91991L10.9092 2.66986ZM19.1897 9.89603L18.4455 9.98906C18.9187 13.7747 16.4746 17.3124 12.7664 18.2092L12.9427 18.9381L13.119 19.6671C17.5689 18.591 20.5018 14.3458 19.9339 9.80301L19.1897 9.89603ZM12.9427 18.9381L12.7664 18.2092C9.05822 19.106 5.26767 17.0761 3.95868 13.4926L3.25421 13.7499L2.54974 14.0073C4.12052 18.3075 8.66919 20.7433 13.119 19.6671L12.9427 18.9381ZM2.79588 18.3333H3.54588V13.75H2.79588H2.04588V18.3333H2.79588ZM2.79588 13.75V14.5H7.37921V13.75V13H2.79588V13.75Z" fill="#2F2B3D" fill-opacity="0.9"/>
</svg>
